<svg width="24" height="24" viewBox="0 0 24 24" fill="none" xmlns="http://www.w3.org/2000/svg">
<rect x="3.5" y="6" width="13" height="12" rx="0.7" stroke="black" stroke-width="0.8" stroke-linejoin="round"/>
<path d="M16.5 18H19.8C20.1866 18 20.5 17.6866 20.5 17.3V14.25V13M20.5 13H16.5M20.5 13L18.6848 8.9157C18.5724 8.66291 18.3217 8.5 18.0451 8.5H16.5" stroke="black" stroke-width="0.8" stroke-linejoin="round"/>
<circle cx="6" cy="18.5" r="1.5" fill="#E8E8E8" stroke="black" stroke-width="0.8" stroke-linejoin="round"/>
<path d="M18.5 18.5C18.5 19.3284 17.8284 20 17 20C16.1716 20 15.5 19.3284 15.5 18.5C15.5 17.6716 16.1716 17 17 17C17.8284 17 18.5 17.6716 18.5 18.5Z" fill="#E8E8E8" stroke="black" stroke-width="0.8" stroke-linejoin="round"/>
</svg>
