<svg xmlns:xlink="http://www.w3.org/1999/xlink" xmlns="http://www.w3.org/2000/svg" class="svg-icon svg-icon-delivery-wagen" width="32"  height="32" ><defs><symbol viewBox="0 0 32 32" id="svg-delivery-wagen"><title>delivery-wagen</title><path d="M29.92 16.61l-3-7A1 1 0 0026 9h-3V7a1 1 0 00-1-1H3a1 1 0 00-1 1v17a1 1 0 001 1h2.14a4 4 0 007.72 0h6.28a4 4 0 007.72 0H29a1 1 0 001-1v-7c0-.134-.027-.267-.08-.39zM23 11h2.34l2.14 5H23v-5zM9 26a2 2 0 110-4 2 2 0 010 4zm10.14-3h-6.28a4 4 0 00-7.72 0H4V8h17v12.56A3.999 3.999 0 0019.14 23zM23 26a2 2 0 110-4 2 2 0 010 4zm5-3h-1.14A4 4 0 0023 20v-2h5v5z" fill="#000"></path></symbol></defs>
<use xlink:href="#svg-delivery-wagen" fill="#222222"></use>
</svg>