<svg width="24" height="24" viewBox="0 0 24 24" fill="none" xmlns="http://www.w3.org/2000/svg">
<path d="M8.35545 5.52672L6.3234 3.49467C6.05003 3.22131 5.60682 3.22131 5.33345 3.49467L3.49497 5.33315C3.22161 5.60652 3.22161 6.04973 3.49498 6.3231L17.6671 20.4953C17.9405 20.7686 18.3837 20.7686 18.6571 20.4953L20.4956 18.6568C20.7689 18.3834 20.7689 17.9402 20.4956 17.6668L18.4635 15.6348M8.35545 5.52672L6.94123 6.94093M8.35545 5.52672L10.8825 8.05373M10.8825 8.05373L9.46825 9.46795M10.8825 8.05373L13.4095 10.5808M13.4095 10.5808L11.9953 11.995M13.4095 10.5808L15.9365 13.1078M15.9365 13.1078L14.5223 14.522M15.9365 13.1078L18.4635 15.6348M18.4635 15.6348L17.0493 17.049" stroke="black" stroke-width="0.8" stroke-linecap="round" stroke-linejoin="round"/>
<path d="M18.495 3.494L20.5038 5.50286C20.7777 5.77669 20.7771 6.22082 20.5026 6.494L18.8884 8.10045L6.20555 20.7943C6.07426 20.9257 5.89612 20.9995 5.71036 20.9995L3.70015 20.9995C3.31368 20.9995 3.00033 20.6863 3.00015 20.2999L2.99917 18.2901C2.99907 18.1044 3.07283 17.9262 3.20419 17.7948L15.8629 5.13608L17.505 3.494C17.7784 3.22063 18.2216 3.22063 18.495 3.494Z" fill="#E8E8E8"/>
<path d="M18.8884 8.10045L20.5026 6.494C20.7771 6.22082 20.7777 5.77669 20.5038 5.50286L18.495 3.494C18.2216 3.22063 17.7784 3.22063 17.505 3.494L15.8629 5.13608M18.8884 8.10045L6.20555 20.7943C6.07426 20.9257 5.89612 20.9995 5.71036 20.9995L3.70015 20.9995C3.31368 20.9995 3.00034 20.6863 3.00015 20.2999L2.99917 18.2901C2.99907 18.1044 3.07283 17.9262 3.20419 17.7948L15.8629 5.13608M18.8884 8.10045L15.8629 5.13608" stroke="black" stroke-width="0.8" stroke-linejoin="round"/>
</svg>
