<svg width="24" height="24" viewBox="0 0 24 24" fill="none" xmlns="http://www.w3.org/2000/svg">
<path fill-rule="evenodd" clip-rule="evenodd" d="M5.8 8.9C5.8 5.53106 8.53106 2.8 11.9 2.8C15.2689 2.8 18 5.53106 18 8.9C18 9.89636 17.6225 11.1196 17.0212 12.4225C16.4237 13.717 15.6234 15.0522 14.8172 16.2615C14.0119 17.4694 13.2058 18.5443 12.6006 19.3175C12.3147 19.6828 12.0741 19.9804 11.9 20.1922C11.7259 19.9804 11.4853 19.6828 11.1994 19.3175C10.5942 18.5443 9.78814 17.4694 8.98282 16.2615C8.17665 15.0522 7.37629 13.717 6.77881 12.4225C6.17748 11.1196 5.8 9.89636 5.8 8.9ZM11.5962 21.0768C11.5962 21.0769 11.5963 21.077 11.9 20.8167L11.5963 21.077L11.9 21.4313L12.2037 21.077L11.9 20.8167C12.2037 21.077 12.2038 21.0769 12.2038 21.0768L12.2041 21.0765L12.2052 21.0753L12.209 21.0708L12.2235 21.0537L12.2791 20.9879C12.3276 20.9303 12.3983 20.8457 12.4881 20.7366C12.6676 20.5186 12.9237 20.2028 13.2306 19.8106C13.8442 19.0265 14.6631 17.9347 15.4828 16.7052C16.3016 15.477 17.1263 14.1038 17.7476 12.7577C18.365 11.42 18.8 10.0703 18.8 8.9C18.8 5.08924 15.7108 2 11.9 2C8.08924 2 5 5.08924 5 8.9C5 10.0703 5.43502 11.42 6.05244 12.7577C6.67371 14.1038 7.49835 15.477 8.31718 16.7052C9.13686 17.9347 9.95575 19.0265 10.5694 19.8106C10.8763 20.2028 11.1324 20.5186 11.3119 20.7366C11.4017 20.8457 11.4724 20.9303 11.5209 20.9879L11.5765 21.0537L11.591 21.0708L11.5948 21.0753L11.5959 21.0765L11.5962 21.0768ZM14.35 8.9C14.35 10.2531 13.2531 11.35 11.9 11.35C10.5469 11.35 9.45 10.2531 9.45 8.9C9.45 7.5469 10.5469 6.45 11.9 6.45C13.2531 6.45 14.35 7.5469 14.35 8.9ZM15.15 8.9C15.15 10.6949 13.6949 12.15 11.9 12.15C10.1051 12.15 8.65 10.6949 8.65 8.9C8.65 7.10507 10.1051 5.65 11.9 5.65C13.6949 5.65 15.15 7.10507 15.15 8.9Z" fill="black"/>
</svg>
