<svg width="24" height="24" viewBox="0 0 24 24" fill="none" xmlns="http://www.w3.org/2000/svg">
<path d="M6.96633 5.41597C7.04965 5.03846 7.42362 4.79812 7.80163 4.87916L16.3877 6.71993C16.7657 6.80097 17.0046 7.1727 16.9213 7.55022L15.702 13.0746L14.3319 19.2826L14.1037 20.3165C14.0204 20.694 13.6465 20.9343 13.2684 20.8533L4.6824 19.0125C4.30439 18.9315 4.0655 18.5598 4.14882 18.1822L6.96633 5.41597Z" fill="#E8E8E8" stroke="black" stroke-width="0.8" stroke-linejoin="round"/>
<path d="M6.89443 6.23418C6.89502 5.84758 7.20891 5.53477 7.59551 5.5355L16.3817 5.55202C16.7683 5.55275 17.0812 5.86674 17.0806 6.25334L17.0719 11.9074L17.0621 18.2615L17.0605 19.3194C17.0599 19.706 16.746 20.0188 16.3594 20.0181L7.57321 20.0016C7.18661 20.0008 6.8737 19.6868 6.87429 19.3002L6.89443 6.23418Z" fill="#E8E8E8" stroke="black" stroke-width="0.8" stroke-linejoin="round"/>
<rect width="10.1732" height="14.185" rx="0.7" transform="matrix(0.965419 -0.260704 0.269816 0.962912 5.66211 5.65234)" fill="#E8E8E8" stroke="black" stroke-width="0.8" stroke-linejoin="round"/>
<path d="M8.66739 7.01683C8.66274 7.41594 8.33543 7.73572 7.93632 7.73107C7.53721 7.72642 7.21744 7.39911 7.22209 7C7.22673 6.60089 7.55405 6.28111 7.95316 6.28576C8.35227 6.29041 8.67204 6.61772 8.66739 7.01683Z" fill="black"/>
</svg>
