<svg xmlns:xlink="http://www.w3.org/1999/xlink" xmlns="http://www.w3.org/2000/svg" class="svg-icon svg-icon-package-bold" width="30"  height="30" ><defs><symbol viewBox="0 0 30 30" id="svg-package-bold"><title>package-bold</title><path d="M15.349 1.943a.938.938 0 00-.698 0L3.461 6.419 7.97 8.22l11.538-4.614-4.158-1.663zm6.682 2.674L10.493 9.23 15 11.033l11.539-4.614-4.508-1.802zm6.094 3.187L15.937 12.68v14.854l12.188-4.875V7.804zm-14.063 19.73V12.678L1.876 7.804V22.66l12.188 4.875zM13.957.202a2.813 2.813 0 012.088 0L29.411 5.55a.937.937 0 01.589.87v16.24a1.875 1.875 0 01-1.18 1.74L15.35 29.79a.938.938 0 01-.698 0l-13.47-5.39A1.875 1.875 0 010 22.66V6.42a.937.937 0 01.589-.87L13.956.2z" fill="#000"></path></symbol></defs>
<use xlink:href="#svg-package-bold" fill="#222222"></use>
</svg>