<svg xmlns:xlink="http://www.w3.org/1999/xlink" xmlns="http://www.w3.org/2000/svg" class="svg-icon svg-icon-user" width="19"  height="21" ><defs><symbol viewBox="0 0 19 21" id="svg-user"><title>user</title> <path fill-rule="evenodd" clip-rule="evenodd" d="M3.328 5.77a5.77 5.77 0 1011.538 0 5.77 5.77 0 00-11.538 0zm10.038 0a4.27 4.27 0 11-8.538 0 4.27 4.27 0 018.538 0z"></path> <path d="M1.461 19.624a.75.75 0 11-1.422-.479c1.38-4.097 4.5-6.184 9.196-6.184 4.703 0 7.764 2.096 9.004 6.207a.75.75 0 11-1.437.433c-1.04-3.454-3.503-5.14-7.567-5.14-4.071 0-6.607 1.696-7.774 5.163z"></path> </symbol></defs>
<use xlink:href="#svg-user" fill="#222222">
</use>
</svg>