<svg xmlns:xlink="http://www.w3.org/1999/xlink" xmlns="http://www.w3.org/2000/svg" class="svg-icon svg-icon-social-youtube-filled" width="27"  height="18" ><defs><symbol viewBox="0 0 27 18" id="svg-social-youtube-filled"><title>social-youtube-filled</title><path d="M26.422 2.824a3.132 3.132 0 00-.861-1.428 3.43 3.43 0 00-1.505-.834C21.945.006 13.486.006 13.486.006A86.149 86.149 0 002.928.534a3.553 3.553 0 00-1.504.854c-.416.4-.717.894-.875 1.435A32.706 32.706 0 00.001 9c-.014 2.07.17 4.137.548 6.177.154.539.455 1.03.872 1.427.417.396.936.683 1.507.835 2.14.555 10.558.555 10.558.555 3.53.04 7.06-.136 10.57-.528a3.43 3.43 0 001.505-.834c.416-.397.711-.89.86-1.428.388-2.036.576-4.105.563-6.178.03-2.082-.16-4.16-.562-6.203v.001zM10.796 12.85V5.152l7.038 3.85-7.038 3.848z"></path></symbol></defs>
<use xlink:href="#svg-social-youtube-filled" fill="#73726E"></use>
</svg>